<svg width="32" height="32" viewBox="0 0 32 32" fill="none" xmlns="http://www.w3.org/2000/svg">
<g clip-path="url(#clip0_434_8144)">
<path d="M23.2896 21.29L21.9996 20V15C21.9996 11.93 20.3596 9.36 17.4996 8.68V8C17.4996 7.17 16.8296 6.5 15.9996 6.5C15.1696 6.5 14.4996 7.17 14.4996 8V8.68C11.6296 9.36 9.99956 11.92 9.99956 15V20L8.70956 21.29C8.07956 21.92 8.51956 23 9.40956 23H22.5796C23.4796 23 23.9196 21.92 23.2896 21.29ZM19.9996 21H11.9996V15C11.9996 12.52 13.5096 10.5 15.9996 10.5C18.4896 10.5 19.9996 12.52 19.9996 15V21ZM15.9996 26C17.0996 26 17.9996 25.1 17.9996 24H13.9996C13.9996 25.1 14.8896 26 15.9996 26Z" fill="#3F4449"/>
</g>
<circle cx="24" cy="7" r="2" fill="#F0AD4E"/>
<defs>
<clipPath id="clip0_434_8144">
<rect width="24" height="24" fill="white" transform="translate(4 4)"/>
</clipPath>
</defs>
</svg>
