<svg width="1442" height="206" viewBox="0 0 1442 206" fill="none" xmlns="http://www.w3.org/2000/svg">
<path d="M1321 115L1305.03 114.933C1303.97 114.933 1302.95 114.512 1302.2 113.761L1271.17 82.7341C1270.42 81.9845 1270 80.9663 1270 79.9054V36.0276C1270 34.9667 1270.42 33.9497 1271.17 33.1989L1302.2 2.17216C1302.95 1.42144 1303.97 1 1305.03 1H1348.91H1348.91C1349.97 1 1350.98 1.42144 1351.74 2.17216L1382.76 33.1989C1383.51 33.9485 1383.93 34.9667 1383.93 36.0276V79.9054C1383.93 80.9663 1383.51 81.9834 1382.76 82.7341L1351.74 113.761C1350.99 114.512 1349.97 114.933 1348.91 114.933H1332" stroke="white" stroke-opacity="0.6" stroke-width="1.5" stroke-linecap="round" stroke-linejoin="round"/>
<path d="M1349.36 8.91781L1349.36 8.91808L1376.02 35.5788C1376.96 36.5239 1377.48 37.7773 1377.48 39.1145V76.8191C1377.48 78.1563 1376.96 79.4086 1376.02 80.3548L1349.36 107.015C1348.41 107.961 1347.16 108.48 1345.82 108.48H1308.12C1306.78 108.48 1305.53 107.962 1304.58 107.017C1304.58 107.016 1304.58 107.016 1304.58 107.016L1277.92 80.3548C1276.97 79.4096 1276.45 78.1562 1276.45 76.8191V39.1145C1276.45 37.7772 1276.97 36.5249 1277.92 35.5788L1304.58 8.91808C1305.53 7.97192 1306.78 7.45312 1308.12 7.45312H1345.82C1347.16 7.45312 1348.41 7.97206 1349.36 8.91781Z" stroke="white" stroke-opacity="0.6" stroke-width="1.5" stroke-linecap="round" stroke-linejoin="round"/>
<path d="M1355.53 59.2949L1354.82 58.6829C1353.04 57.1456 1350.32 57.341 1348.78 59.1161L1344.78 63.7258C1344.21 64.3844 1343.13 63.9812 1343.13 63.1097C1343.13 62.7447 1343.11 62.3829 1343.07 62.0273V33.0072C1343.07 31.1008 1341.51 29.5418 1339.59 29.5418H1339.34C1337.43 29.5418 1335.86 31.1008 1335.86 33.0072V51.8949C1335.86 52.3529 1335.49 52.725 1335.03 52.725C1334.53 52.725 1334.11 52.3146 1334.11 51.8091V29.3495C1334.11 27.5073 1332.6 26 1330.76 26H1330.27C1328.42 26 1326.91 27.5073 1326.91 29.3495V51.958C1326.91 52.3818 1326.56 52.7261 1326.14 52.7261C1325.6 52.7261 1325.16 52.2888 1325.16 51.7481V33.7246C1325.16 31.8183 1323.6 30.2593 1321.69 30.2593H1321.43C1319.52 30.2593 1317.95 31.8183 1317.95 33.7246V51.8939C1317.95 52.3529 1317.58 52.725 1317.12 52.725C1316.62 52.725 1316.2 52.3157 1316.2 51.8101V37.5952C1316.2 35.6889 1314.64 34.1299 1312.73 34.1299H1312.47C1310.56 34.1299 1309 35.6889 1309 37.5952V62.5535C1309 62.6227 1309 62.691 1309.01 62.7602C1309 62.876 1309 62.9929 1309 63.1097V76.848C1309 82.4316 1313.58 87 1319.18 87H1332.95C1336.53 87 1339.69 85.1309 1341.51 82.323C1342.05 81.4753 1342.65 80.6565 1343.31 79.8936L1355.96 65.3169C1357.5 63.5418 1357.31 60.8322 1355.53 59.2949H1355.53Z" stroke="white" stroke-opacity="0.6" stroke-width="1.5" stroke-linecap="round" stroke-linejoin="round"/>
<path d="M1321 115V205H1.5" stroke="white" stroke-opacity="0.6" stroke-width="1.5" stroke-linecap="round" stroke-linejoin="round"/>
<path d="M1332 115V205H1441" stroke="white" stroke-opacity="0.6" stroke-width="1.5" stroke-linecap="round" stroke-linejoin="round"/>
</svg>
