<svg width="1192" height="307" viewBox="0 0 1192 307" fill="none" xmlns="http://www.w3.org/2000/svg">
<g clip-path="url(#clip0_1703_39155)">
<path d="M29.0005 191.999C63.6152 169.583 108.584 154.081 190.49 193.618C272.395 233.155 357.998 273.289 464.519 238.292C571.04 203.295 641.544 203.062 690.534 210.708C730.715 218.003 687.985 272.835 668.377 227.55C647.519 166.242 743.72 178.202 799.447 203.592C845.059 224.374 926.323 277.637 985.637 269.923C1044.95 262.21 1069.09 228.668 1088.72 212.841" stroke="white" stroke-opacity="0.6" stroke-width="1.5" stroke-linecap="round" stroke-linejoin="round"/>
<path d="M5.30716 193.82C0.346974 200.66 1.86613 210.223 8.70047 215.182C15.5431 220.141 25.1088 218.622 30.0685 211.79C35.0286 204.95 33.5095 195.387 26.6751 190.428C19.8326 185.469 10.2668 186.988 5.30716 193.82Z" fill="white" fill-opacity="0.6"/>
<path d="M11.8018 198.54C9.44529 201.786 10.1668 206.333 13.4141 208.689C16.6614 211.045 21.2097 210.324 23.5662 207.078C25.9227 203.832 25.2012 199.285 21.9539 196.929C18.7066 194.573 14.1583 195.294 11.8018 198.54Z" fill="#2B9FD9"/>
<path d="M1114.43 79.1964C1112.32 83.6766 1117.45 90.5506 1122.57 92.9661C1127.69 95.3816 1130.84 92.4289 1132.95 87.9404C1135.07 83.4602 1135.36 79.147 1130.24 76.7316C1125.13 74.3161 1116.55 74.7079 1114.43 79.1881L1114.43 79.1964Z" fill="white" fill-opacity="0.6"/>
<path d="M1178.53 109.483C1176.41 113.963 1167.84 114.355 1162.72 111.939C1157.6 109.524 1157.89 105.211 1160.01 100.73C1162.13 96.2501 1165.28 93.2892 1170.39 95.7047C1175.51 98.1202 1180.65 104.994 1178.53 109.474L1178.53 109.483Z" fill="white" fill-opacity="0.6"/>
<path d="M1178.53 109.483C1184.8 114.403 1190.9 119.818 1186.25 131.177C1181.14 143.632 1147.24 193.716 1143.13 198.567C1139.01 203.418 1125.19 224.284 1090.76 212.986C1080.6 207.382 1060.17 192.735 1068.07 162.523C1070.38 155.653 1088.39 92.612 1092.9 86.1474C1095.28 82.7373 1102.81 73.7994 1115.49 79.3671" stroke="#FAFCFC" stroke-opacity="0.6" stroke-miterlimit="10"/>
<g clip-path="url(#clip1_1703_39155)">
<path d="M1071.25 153.016C1072.05 168.747 1093.83 210.622 1142.94 198.617" stroke="#FAFCFC" stroke-opacity="0.6" stroke-miterlimit="10"/>
</g>
</g>
<defs>
<clipPath id="clip0_1703_39155">
<rect width="1178" height="227" fill="white" transform="translate(15.9531 0.69873) rotate(3.8509)"/>
</clipPath>
<clipPath id="clip1_1703_39155">
<rect width="72" height="48" fill="white" transform="translate(1071 153.001)"/>
</clipPath>
</defs>
</svg>
