<svg width="1440" height="119" viewBox="0 0 1440 119" fill="none" xmlns="http://www.w3.org/2000/svg">
<path d="M1296.57 9.14307H1278.59C1276.68 9.14307 1275.14 10.6885 1275.14 12.5948V16.1057C1275.14 18.012 1276.68 19.5574 1278.59 19.5574H1296.57C1298.48 19.5574 1300.03 18.012 1300.03 16.1057V12.5948C1300.03 10.6885 1298.48 9.14307 1296.57 9.14307Z" stroke="white" stroke-opacity="0.6" stroke-width="1.5" stroke-linecap="round" stroke-linejoin="round"/>
<path d="M1297.66 50.8522C1296.07 50.8522 1294.78 49.5588 1294.78 47.977V39.344C1294.78 37.7622 1293.48 36.4688 1291.9 36.4688H1283.25C1281.67 36.4688 1280.37 37.7622 1280.37 39.344V47.977C1280.37 49.5588 1279.08 50.8522 1277.5 50.8522H1268.85C1267.27 50.8522 1265.97 52.1457 1265.97 53.7274V62.3605C1265.97 63.9422 1267.27 65.2357 1268.85 65.2357H1277.5C1279.08 65.2357 1280.37 66.5292 1280.37 68.1109V76.744C1280.37 78.3257 1281.67 79.6192 1283.25 79.6192H1291.9C1293.48 79.6192 1294.78 78.3257 1294.78 76.744V68.1109C1294.78 66.5292 1296.07 65.2357 1297.66 65.2357H1306.3C1307.88 65.2357 1309.18 63.9422 1309.18 62.3605V53.7274C1309.18 52.1457 1307.88 50.8522 1306.3 50.8522H1297.66Z" stroke="white" stroke-opacity="0.6" stroke-width="1.5" stroke-linecap="round" stroke-linejoin="round"/>
<path d="M1438.71 93.145H1419.17L1413.95 100.337L1408.35 83.3146L1403.51 113.042L1398.66 62.9441L1393.43 93.145H1339.51V19.5572H1308.66V0.938477H1266.49V19.5572H1235.64V93.145V93.7067H1179.32L1175.27 88.6289L1172.12 93.7067H1161.54L1155.9 111.845L1150.48 53.8085L1145.32 104.624L1138.96 93.7067H1126.2L1118.19 84.5933L1110.59 93.7067H1085.65L1080.31 88.3702L1075.66 93.7067H1065.5L1061.71 117.78L1054.83 60.5124L1048.97 113.308L1041.74 93.7067H1034.51L1026.93 83.0411L1017.63 93.7067H1.5" stroke="white" stroke-opacity="0.6" stroke-width="1.5" stroke-linecap="round" stroke-linejoin="round"/>
</svg>
