<svg width="140" height="138" viewBox="0 0 140 138" fill="none" xmlns="http://www.w3.org/2000/svg">
<g clip-path="url(#clip0_412_4417)">
<path fill-rule="evenodd" clip-rule="evenodd" d="M48.5807 22.5898V43.8384C43.4637 30.4457 30.5557 33.0086 30.5557 33.0086C32.7467 24.7348 39.7747 18.4877 48.9937 18.1465C58.3387 17.7982 65.7237 24.6722 68.3137 33.0086C58.4157 19.1145 48.5807 22.5898 48.5807 22.5898ZM89.7127 43.8384C84.5887 30.4457 71.6807 33.0086 71.6807 33.0086H71.6737C73.8647 24.7348 80.8997 18.4877 90.1117 18.1465C99.4707 17.7982 106.856 24.6722 109.446 33.0086C99.5477 19.1145 89.7127 22.5898 89.7127 22.5898V43.8384Z" fill="#45B1AB"/>
<path fill-rule="evenodd" clip-rule="evenodd" d="M69.1464 4.85787V26.1065C64.0294 12.7068 51.1144 15.2767 51.1144 15.2767C53.3124 6.99596 60.3404 0.748833 69.5524 0.414538C78.9114 0.0732792 86.2894 6.94024 88.8864 15.2767C78.9814 1.38956 69.1464 4.85787 69.1464 4.85787ZM111.783 62.2312C106.659 48.8315 93.7514 51.4014 93.7514 51.4014C95.9494 43.1207 102.97 36.8736 112.189 36.5393C121.548 36.191 128.919 43.0719 131.516 51.4014C121.611 37.5073 111.783 40.9756 111.783 40.9756V62.2312ZM69.5524 36.5393C60.3334 36.8736 53.3124 43.1207 51.1144 51.4014C51.1144 51.4014 64.0224 48.8315 69.1534 62.2312V40.9756C69.1534 40.9756 78.9814 37.5073 88.8864 51.4014C86.2894 43.0719 78.9114 36.191 69.5524 36.5393ZM26.5094 40.9756V62.2312C21.3854 48.8315 8.48438 51.4014 8.48438 51.4014C10.6754 43.1207 17.7104 36.8736 26.9224 36.5393C36.2814 36.191 43.6524 43.0719 46.2494 51.4014C36.3444 37.5073 26.5094 40.9756 26.5094 40.9756Z" fill="#233F84"/>
<path d="M39.4871 88.9121H38.1221V97.7639H39.4871V88.9121Z" fill="#233F84"/>
<path d="M44.2324 88.9121V90.2771V92.659H43.2384V88.9121H43.2104H41.8734H40.7324V90.2771H41.8734V96.4059H40.7324V97.7639H41.8734H43.2104H43.2384V94.0171H44.2324V96.4059V97.7639H45.5974H46.7104V96.4059H45.5974V90.2771H46.7104V88.9121H45.5974H44.2324Z" fill="#233F84"/>
<path d="M91.6016 88.9121V97.7639H92.9736H97.3626V96.4059H92.9736V90.2771H97.3626V88.9121H91.6016Z" fill="#233F84"/>
<path d="M33.8376 94.0171V92.659H32.1506V88.9121H30.7856V92.659H29.0986V94.0171H30.7856V97.7639H32.1506V94.0171H33.8376Z" fill="#233F84"/>
<path d="M65.9465 88.9121H64.5745V92.659H62.8945V94.0171H64.5745V97.7639H65.9465V94.0171H67.6335V92.659H65.9465V88.9121Z" fill="#233F84"/>
<path d="M77.0344 88.9121H75.6694V92.659H73.9824V94.0171H75.6694V97.7639H77.0344V94.0171H78.7214V92.659H77.0344V88.9121Z" fill="#233F84"/>
<path d="M85.8621 88.9121H84.4971V97.7639H85.8621V88.9121Z" fill="#233F84"/>
<path d="M105.062 88.9121H103.697V97.7639H105.062V88.9121Z" fill="#233F84"/>
<path d="M110.901 92.659H109.214V88.9121H107.849V92.659H106.162V94.0171H107.849V97.7639H109.214V94.0171H110.901V92.659Z" fill="#233F84"/>
<path d="M35.5527 94.1699C34.5657 94.1699 33.7607 94.9708 33.7607 95.9528C33.7607 96.9348 34.5657 97.7357 35.5527 97.7357C36.5397 97.7357 37.3447 96.9348 37.3447 95.9528C37.3447 94.9708 36.5397 94.1699 35.5527 94.1699ZM35.5527 96.7468C35.1187 96.7468 34.7617 96.3916 34.7617 95.9598C34.7617 95.528 35.1187 95.1728 35.5527 95.1728C35.9867 95.1728 36.3437 95.528 36.3437 95.9598C36.3437 96.3916 35.9867 96.7468 35.5527 96.7468Z" fill="#233F84"/>
<path d="M59.7022 94.1699C58.7152 94.1699 57.9102 94.9708 57.9102 95.9528C57.9102 96.9348 58.7152 97.7357 59.7022 97.7357C60.6892 97.7357 61.4942 96.9348 61.4942 95.9528C61.4942 94.9708 60.6892 94.1699 59.7022 94.1699ZM59.7022 96.7468C59.2682 96.7468 58.9112 96.3916 58.9112 95.9598C58.9112 95.528 59.2682 95.1728 59.7022 95.1728C60.1362 95.1728 60.4932 95.528 60.4932 95.9598C60.4932 96.3916 60.1362 96.7468 59.7022 96.7468Z" fill="#233F84"/>
<path d="M81.7041 94.1699C80.7171 94.1699 79.9121 94.9708 79.9121 95.9528C79.9121 96.9348 80.7171 97.7357 81.7041 97.7357C82.6911 97.7357 83.4961 96.9348 83.4961 95.9528C83.4961 94.9708 82.6911 94.1699 81.7041 94.1699ZM81.7041 96.7468C81.2701 96.7468 80.9131 96.3916 80.9131 95.9598C80.9131 95.528 81.2701 95.1728 81.7041 95.1728C82.1381 95.1728 82.4951 95.528 82.4951 95.9598C82.4951 96.3916 82.1381 96.7468 81.7041 96.7468Z" fill="#233F84"/>
<path d="M88.669 94.1699C87.682 94.1699 86.877 94.9708 86.877 95.9528C86.877 96.9348 87.682 97.7357 88.669 97.7357C89.656 97.7357 90.461 96.9348 90.461 95.9528C90.461 94.9708 89.656 94.1699 88.669 94.1699ZM88.669 96.7468C88.235 96.7468 87.878 96.3916 87.878 95.9598C87.878 95.528 88.235 95.1728 88.669 95.1728C89.103 95.1728 89.46 95.528 89.46 95.9598C89.46 96.3916 89.103 96.7468 88.669 96.7468Z" fill="#233F84"/>
<path d="M59.7022 89.3369C58.7152 89.3369 57.9102 90.1378 57.9102 91.1198C57.9102 92.1018 58.7152 92.9027 59.7022 92.9027C60.6892 92.9027 61.4942 92.1018 61.4942 91.1198C61.4942 90.1378 60.6892 89.3369 59.7022 89.3369ZM59.7022 91.9068C59.2682 91.9068 58.9112 91.5516 58.9112 91.1198C58.9112 90.688 59.2682 90.3328 59.7022 90.3328C60.1362 90.3328 60.4932 90.688 60.4932 91.1198C60.4932 91.5516 60.1362 91.9068 59.7022 91.9068Z" fill="#233F84"/>
<path d="M100.807 94.1699C99.8196 94.1699 99.0146 94.9708 99.0146 95.9528C99.0146 96.9348 99.8196 97.7357 100.807 97.7357C101.794 97.7357 102.599 96.9348 102.599 95.9528C102.599 94.9708 101.794 94.1699 100.807 94.1699ZM100.807 96.7468C100.373 96.7468 100.016 96.3916 100.016 95.9598C100.016 95.528 100.373 95.1728 100.807 95.1728C101.241 95.1728 101.598 95.528 101.598 95.9598C101.598 96.3916 101.241 96.7468 100.807 96.7468Z" fill="#233F84"/>
<path d="M100.807 89.3369C99.8196 89.3369 99.0146 90.1378 99.0146 91.1198C99.0146 92.1018 99.8196 92.9027 100.807 92.9027C101.794 92.9027 102.599 92.1018 102.599 91.1198C102.599 90.1378 101.794 89.3369 100.807 89.3369ZM100.807 91.9068C100.373 91.9068 100.016 91.5516 100.016 91.1198C100.016 90.688 100.373 90.3328 100.807 90.3328C101.241 90.3328 101.598 90.688 101.598 91.1198C101.598 91.5516 101.241 91.9068 100.807 91.9068Z" fill="#233F84"/>
<path d="M52.3245 89.3369C50.0915 89.3369 48.2715 91.1477 48.2715 93.3693C48.2715 95.591 50.0915 97.4018 52.3245 97.4018C54.5575 97.4018 56.3775 95.591 56.3775 93.3693C56.3775 91.1477 54.5575 89.3369 52.3245 89.3369ZM52.3245 96.4059C50.6445 96.4059 49.2795 95.0478 49.2795 93.3693C49.2795 91.6909 50.6445 90.3328 52.3245 90.3328C54.0045 90.3328 55.3695 91.6909 55.3695 93.3693C55.3695 95.0478 54.0045 96.4059 52.3245 96.4059Z" fill="#233F84"/>
<path d="M32.0186 84.7892L32.9986 85.6806L33.8316 84.6499L32.9076 83.7236L32.0186 84.7892Z" fill="#233F84"/>
<path d="M35.6444 84.434L34.7134 83.5146L33.8174 84.5872L34.7974 85.4786L35.6444 84.434Z" fill="#233F84"/>
<path d="M36.4842 79.3708H42.2872L43.1762 77.4346L43.0152 77.3162C42.8262 77.3162 42.4622 77.6575 41.1182 77.6575C40.5232 77.6575 40.0192 77.3162 39.7112 76.9402C39.3262 76.4875 39.2212 76.0487 39.2212 76.0069C39.2212 75.6726 40.4392 75.5403 40.5302 75.5403C41.3212 75.5403 42.2172 76.0766 42.5602 76.1323C42.5602 75.8258 42.0772 75.2408 41.7762 75.0249C40.9292 74.2867 40.4952 74.1056 39.8652 74.0778C39.3192 74.0499 38.8782 74.3912 38.4022 74.8996C38.0382 75.2965 37.7022 75.8467 37.7022 76.4457C37.7022 77.0446 37.8632 77.2466 37.8842 77.4555H36.4842C36.4842 77.4555 36.4282 77.4555 36.3442 77.4555H36.0292C35.5322 77.4555 34.7832 77.4625 34.6782 77.4555C33.3692 77.7202 32.9772 77.9221 32.4732 78.4097C31.8432 79.0574 31.5912 79.8234 31.5912 80.0951C31.5912 81.0562 32.9002 80.8611 33.3692 81.1537C33.1242 81.3487 32.0742 81.669 31.4232 81.669C30.4082 81.669 29.4142 80.9099 29.4142 79.8861C29.4142 78.9529 30.1282 78.0823 30.1282 77.8107C30.1282 77.6436 30.0582 77.4555 29.9182 77.4555C29.7992 77.4555 29.7782 77.4764 29.2812 78.2634C28.7422 79.134 28.4062 79.8374 28.4062 81.0353C28.4062 82.4142 29.2252 83.438 30.8282 83.438C31.5282 83.438 32.9212 83.243 34.1952 82.1774C34.9022 81.5994 35.1962 80.889 35.1962 80.6174C35.1962 79.6354 34.3212 79.5727 33.5092 79.3708H36.4982H36.4842Z" fill="#233F84"/>
<path d="M50.0153 79.9279C50.6943 80.3597 50.8623 80.5895 50.9813 80.5895C51.2333 80.6034 51.2683 79.4682 51.4643 79.4055C51.5903 79.3638 52.6893 79.3568 53.3473 79.3638H54.7473C55.5733 79.3638 55.4193 78.326 55.6993 78.1171C55.8393 78.6464 55.8183 79.3638 56.7213 79.3638H57.8133L61.5233 79.3916C61.8943 79.3916 63.0353 78.5768 63.7913 78.5768H64.3863L65.1003 78.737L66.0943 76.9958C65.9543 76.9958 65.9333 77.0376 65.9333 77.0376C64.6733 77.0376 63.2103 76.3272 62.3843 75.7353C61.8593 75.3662 61.1593 74.5792 60.3893 74.5792C59.3953 74.5792 58.7093 76.3969 58.7093 76.5083L58.6883 76.7173C58.8563 76.5989 58.8983 76.5223 59.4093 76.5223C59.8853 76.5223 60.7393 76.9889 60.7393 76.9889C60.9703 77.1142 61.5093 77.4416 61.5093 77.4416H57.8203H56.8963C56.8823 77.3928 56.2873 77.0864 56.2873 76.3969C56.2873 76.1462 56.3783 76.0347 56.3783 75.9233L56.2873 75.7283C55.7343 75.7283 55.4473 77.3928 55.3633 77.4485H53.8443H52.0033C51.9823 77.2883 51.7723 77.156 51.5343 76.4317C51.4293 76.1253 51.2753 75.3592 50.5333 75.3592C50.3373 75.3592 49.7003 75.4706 49.2873 76.1392C48.9093 76.766 48.7973 77.3789 48.4683 77.4485H46.1793C45.8153 77.4485 45.6683 77.1421 45.6683 76.6824C45.6683 74.9065 45.4653 72.9704 45.4373 72.8102C45.4163 72.5455 45.4233 71.877 45.2343 71.877C45.1293 71.877 45.1293 71.9048 44.6463 72.6779C44.5553 72.8241 44.0723 73.4857 44.0723 73.5345C44.0723 73.5972 44.3593 74.3772 44.3943 74.6349C44.5623 75.7283 44.6673 77.6644 44.6673 77.6644C44.6673 79.0016 44.7863 79.3568 45.0243 79.3568H47.4953H47.8243C48.5173 79.3568 48.3563 78.723 48.6643 78.3539C48.8323 79.2663 48.2653 78.8136 50.0013 79.9209L50.0153 79.9279ZM50.1693 76.9541C50.4143 76.9541 50.9253 77.3928 50.9463 77.9709C50.9463 77.9709 49.8963 77.7341 49.3293 77.3928C49.4973 77.2117 49.8753 76.9541 50.1623 76.9541H50.1693Z" fill="#233F84"/>
<path d="M53.7178 73.5275L54.7398 74.4747L55.6218 73.3673L54.6488 72.4062L53.7178 73.5275Z" fill="#233F84"/>
<path d="M57.5264 73.1517L56.5534 72.1836L55.6084 73.3118L56.6234 74.259L57.5264 73.1517Z" fill="#233F84"/>
<path d="M59.7871 81.6894L60.9211 82.7271L61.9081 81.5083L60.8301 80.4219L59.7871 81.6894Z" fill="#233F84"/>
<path d="M68.166 81.69L68.768 80.8543C68.768 80.6105 68.404 80.5339 68.222 80.52C67.627 80.4643 67.424 80.8543 67.137 81.1956C66.941 81.4323 66.759 81.6482 66.787 81.9199C66.843 82.4074 67.214 82.5049 67.438 82.6163C67.256 83.076 67.067 83.3058 67.102 83.4799C67.228 83.3336 67.34 83.1874 67.48 83.0829C67.991 82.6999 68.509 82.7138 68.789 82.6651C68.831 82.5815 69.055 82.3238 69.09 81.9547C69.111 81.7736 69.034 81.9338 68.593 81.9477C67.669 81.9686 67.417 81.6552 67.312 81.4672L67.543 81.3557C67.886 81.3139 68.124 81.697 68.159 81.69H68.166Z" fill="#233F84"/>
<path d="M72.4645 71.7236C72.4155 71.7236 72.3665 71.7376 72.1215 72.239C72.1215 72.239 71.6455 73.1235 71.6035 73.3046C71.5825 73.5274 71.9115 74.4119 71.0365 75.373C70.3155 74.3771 69.2655 73.5762 68.4675 73.0538C67.5785 72.4828 67.3475 72.3713 67.3475 72.3713C67.2075 72.3713 67.1515 72.7335 67.1305 72.8379C67.1025 73.033 66.9135 73.5623 66.9275 74.0776C66.9275 74.391 67.0325 74.3771 67.6415 75.0526C67.9285 75.366 68.2365 75.7003 68.2575 75.7003C68.4045 75.7003 68.3765 75.5402 68.5165 75.0178L70.2595 76.3062C70.0145 76.6893 68.3485 77.3161 68.1525 77.4136C67.9355 77.539 67.9565 77.149 67.8165 76.9679C67.6975 77.1141 67.6625 77.9638 67.6625 77.9638C67.6625 79.1338 67.9705 79.3497 67.9845 79.3497C68.2225 79.4194 72.2685 79.3706 72.2685 79.3706L72.3455 79.2035C72.3455 78.4026 72.4645 78.0613 72.4645 77.5947C72.4645 76.9052 71.5685 76.1043 71.5545 75.965C71.5545 75.8953 71.5265 76.0555 71.7575 75.6446C72.0095 75.1919 72.0305 75.0944 72.1565 74.8925C72.3035 75.0039 72.3945 75.1502 72.5345 75.1502C72.6115 75.1502 72.6395 75.1223 72.9335 74.4676L73.3815 73.4717C73.3815 73.2906 73.0245 73.0469 72.7935 72.5176C72.5835 72.0649 72.6185 71.7236 72.4715 71.7236H72.4645ZM69.8605 77.4554L70.8335 76.7589C70.8335 76.7589 71.3375 77.1768 71.4425 77.4554H69.8605Z" fill="#233F84"/>
<path d="M75.7469 72.4618C75.7399 72.2668 75.8519 71.8838 75.6699 71.8838C75.4809 71.8838 75.2289 72.5176 75.1939 72.6151C74.8229 73.3881 74.7109 73.6528 74.7109 73.806C74.7459 74.6557 74.7109 74.7949 74.7319 75.1223C74.8299 76.6196 74.6969 79.301 74.8439 79.6004C75.2219 79.1895 75.8869 78.3747 75.8869 78.0752C75.8869 77.7757 75.8379 74.9342 75.7959 73.7851C75.7749 73.2697 75.7539 72.9633 75.7399 72.4688L75.7469 72.4618Z" fill="#233F84"/>
<path d="M82.7683 75.5335C82.4393 75.5335 82.1103 76.3065 82.0543 76.418C81.3053 77.7482 81.2773 78.9043 81.2773 78.9043C81.2773 80.339 82.1313 81.4811 83.8183 81.4672C85.6733 81.4463 86.6533 80.1718 86.8703 78.4655C86.9123 78.1173 86.8913 77.9641 86.8913 77.5184C86.8913 77.5184 86.7653 76.3762 86.6393 75.8956C86.5343 75.5056 86.2473 74.9972 86.0933 74.8301L85.1133 76.5085C85.2533 76.6687 85.9183 78.1382 85.9183 78.5212C85.8133 79.1132 85.4283 79.1829 84.2663 79.1829C82.9223 79.1829 82.3903 78.3959 82.3903 77.6437C82.3903 76.815 82.8943 75.8051 82.8943 75.7146C82.8943 75.5683 82.8383 75.5335 82.7683 75.5335Z" fill="#233F84"/>
<path d="M86.282 72.218L85.211 71.1455L84.168 72.4061L85.295 73.4507L86.282 72.218Z" fill="#233F84"/>
<path d="M97.286 79.3708C97.335 79.3708 97.363 79.3708 97.363 79.3708C97.454 79.3569 97.559 79.3499 97.664 79.329C98.014 79.2872 98.133 78.9947 98.231 78.744C98.385 79.0365 98.77 79.2176 99.162 79.3081V79.329C99.211 79.343 99.302 79.3499 99.421 79.3639C99.701 79.4056 99.96 79.4126 100.1 79.3917C101.913 79.4405 105.686 79.3778 106.918 79.3708H108.024C108.5 79.3708 108.661 79.1271 108.78 78.7928C108.85 78.5838 108.941 78.3331 108.941 78.1311C108.941 77.8874 108.955 77.6645 108.934 77.3651C108.857 76.4527 108.668 74.9902 108.668 74.9902L108.885 74.8718C109.081 74.6489 109.319 74.1614 109.347 73.848C109.417 73.2978 108.934 73.4301 108.612 72.9078C108.423 72.5735 108.423 72.5039 108.409 72.2322C108.395 72.1278 108.444 71.9955 108.304 71.7656C108.304 71.7656 107.233 73.0471 107.212 73.7644C107.247 74.1335 107.492 74.426 107.583 75.1434C107.723 76.2229 107.765 76.9472 107.856 77.2467V77.4556H107.17H105.833L105.966 77.0865C105.966 76.3065 105.217 74.8509 104.006 74.9554C103.299 75.025 101.255 76.4249 100.954 76.6338C100.191 77.1561 99.736 77.3651 99.736 77.3651C99.533 77.4068 99.449 77.4486 99.379 77.4695C99.365 77.4695 99.344 77.4626 99.33 77.4556C99.008 77.3651 98.903 77.4904 98.882 76.8288C98.868 76.2647 99.043 75.9931 99.043 75.9931L98.896 75.7981C98.679 75.812 98.133 76.5711 98.203 77.4556C97.839 77.4556 97.566 77.4626 97.363 77.4626L95.529 77.4556C95.508 77.2954 95.291 77.1631 95.06 76.4388C94.955 76.1323 94.794 75.3663 94.059 75.3663C93.863 75.3663 93.226 75.4777 92.806 76.1463C92.435 76.7731 92.323 77.3859 92.001 77.4556H89.712C89.355 77.4556 89.208 77.1492 89.208 76.6895C89.208 74.9136 89.005 72.9774 88.977 72.8173C88.956 72.5526 88.97 71.884 88.774 71.884C88.669 71.884 88.669 71.9119 88.193 72.6849C88.095 72.8312 87.626 73.4928 87.626 73.5416C87.626 73.6042 87.906 74.3843 87.948 74.6419C88.116 75.7354 88.221 77.6715 88.221 77.6715C88.221 79.0087 88.326 79.3639 88.571 79.3639H91.042H91.371C92.064 79.3639 91.903 78.7301 92.218 78.361C92.379 79.2733 91.812 78.8206 93.555 79.928C94.234 80.3598 94.402 80.5896 94.521 80.5896C94.773 80.6035 94.801 79.4683 95.011 79.4056C95.13 79.3639 96.25 79.3569 96.908 79.3639C96.908 79.3639 97.069 79.3778 97.293 79.3639L97.286 79.3708ZM101.248 77.3929C101.248 77.3929 102.676 76.585 103.124 76.585C103.53 76.585 104.195 76.9959 104.419 77.4486H101.213L101.248 77.3859V77.3929ZM92.855 77.3929C93.03 77.2118 93.401 76.9542 93.695 76.9542C93.933 76.9542 94.451 77.3929 94.472 77.971C94.472 77.971 93.415 77.7342 92.855 77.3929Z" fill="#233F84"/>
<path d="M102.564 72.8656L101.486 71.7861L100.443 73.0467L101.577 74.0983L102.564 72.8656Z" fill="#233F84"/>
<path d="M111.377 71.877C111.188 71.877 110.936 72.5107 110.901 72.6082C110.537 73.3813 110.425 73.6459 110.425 73.7991C110.46 74.6488 110.425 74.7881 110.453 75.1154C110.551 76.6128 110.411 79.2941 110.565 79.5936C110.936 79.1827 111.608 78.3678 111.608 78.0684C111.608 77.7689 111.559 74.9274 111.517 73.7783C111.496 73.2629 111.475 72.9564 111.461 72.462C111.447 72.267 111.566 71.8839 111.384 71.8839L111.377 71.877Z" fill="#233F84"/>
<path d="M41.6434 115.642C42.2244 115.412 42.7074 115.203 43.0924 115.015C43.4704 114.827 43.7154 114.73 43.8134 114.73L43.9464 114.744L44.0864 114.758L44.2894 114.57L42.6164 112.083L42.2594 112.278L42.3574 112.55C42.3574 112.759 42.1894 112.968 41.8674 113.198C41.5384 113.427 41.1254 113.629 40.6424 113.81C40.1594 113.978 39.6204 114.138 39.0184 114.249C38.4304 114.368 37.8704 114.43 37.3244 114.43C36.6174 114.43 35.9384 114.333 35.2874 114.145C34.6364 113.95 34.0764 113.692 33.5934 113.323C33.1174 112.968 32.7324 112.529 32.4454 112C32.1584 111.477 32.0114 110.892 32.0114 110.217C32.0114 109.541 32.1584 108.942 32.4454 108.427C32.7324 107.905 33.1174 107.466 33.5934 107.104C34.0764 106.741 34.6364 106.47 35.2874 106.282C35.9384 106.094 36.6174 106.003 37.3244 106.003C37.7444 106.003 38.2134 106.045 38.7104 106.136C39.2074 106.233 39.6834 106.344 40.1244 106.491C40.5794 106.637 40.9504 106.797 41.2584 106.971C41.5594 107.152 41.7274 107.326 41.7624 107.494L41.7974 107.654V107.8L42.0564 107.967L44.0374 105.133L43.6594 104.854L43.5194 105.035L43.3024 105.154C43.2324 105.154 43.0434 105.098 42.7424 104.972C42.4414 104.84 42.0284 104.715 41.5034 104.569C40.9784 104.429 40.3694 104.304 39.6694 104.172C38.9764 104.053 38.1924 103.977 37.3244 103.977C36.2674 103.977 35.2384 104.116 34.2654 104.387C33.2854 104.638 32.4174 105.049 31.6684 105.578C30.9124 106.108 30.3244 106.769 29.8904 107.556C29.4494 108.343 29.2324 109.249 29.2324 110.279C29.2324 111.31 29.4494 112.243 29.8904 113.023C30.3244 113.81 30.9194 114.458 31.6684 114.98C32.4174 115.503 33.2854 115.879 34.2654 116.137C35.2384 116.38 36.2674 116.506 37.3244 116.506C38.1364 116.506 38.9064 116.422 39.6554 116.255C40.3974 116.081 41.0624 115.872 41.6434 115.635V115.642Z" fill="#233F84"/>
<path d="M67.8306 104.554V104.143H64.0016V104.554C64.4426 104.554 64.6596 104.7 64.6596 104.985V112.423L57.3936 105.445C57.0576 105.139 56.8896 104.923 56.8896 104.79C56.8896 104.63 56.9596 104.547 57.0926 104.547V104.136H52.7666V104.547C53.0816 104.547 53.2426 104.693 53.2426 104.978V115.606C53.2426 115.878 53.0816 116.017 52.7666 116.017V116.442H56.5116V116.017C56.1196 116.017 55.9306 115.871 55.9306 115.606V107.834L63.6586 115.265C63.9386 115.523 64.0646 115.704 64.0646 115.801C64.0646 115.947 63.9596 116.017 63.7356 116.017V116.442H67.8376V116.017C67.5226 116.017 67.3546 115.871 67.3546 115.606V104.978C67.3546 104.693 67.5226 104.547 67.8376 104.547L67.8306 104.554Z" fill="#233F84"/>
<path d="M80.2276 116.373C80.8786 116.47 81.6836 116.512 82.6496 116.512C83.3426 116.512 84.0916 116.47 84.8896 116.373C85.6946 116.268 86.4296 116.066 87.1296 115.767C87.8226 115.467 88.4036 115.063 88.8726 114.548C89.3346 114.04 89.5726 113.371 89.5726 112.556C89.5726 111.86 89.4186 111.289 89.1316 110.85C88.8236 110.411 88.4456 110.063 87.9626 109.805C87.4726 109.548 86.9266 109.36 86.3106 109.241C85.7016 109.123 85.0716 109.039 84.4206 108.99C83.7766 108.942 83.1466 108.907 82.5306 108.879C81.9146 108.844 81.3616 108.788 80.8856 108.691C80.4026 108.593 80.0106 108.454 79.7166 108.266C79.4156 108.071 79.2686 107.792 79.2686 107.423C79.2686 107.159 79.3736 106.929 79.5906 106.755C79.8006 106.588 80.0666 106.427 80.3886 106.316C80.7106 106.212 81.0676 106.128 81.4596 106.079C81.8586 106.024 82.2366 105.996 82.6076 105.996C83.0976 105.996 83.5946 106.024 84.0846 106.121C84.5676 106.212 85.0226 106.316 85.4496 106.455C85.8696 106.595 86.2406 106.762 86.5556 106.943C86.8706 107.124 87.0876 107.312 87.2276 107.486C87.3256 107.625 87.3956 107.806 87.4236 108.029L87.6756 108.12L89.4256 105.195L89.1176 105C89.0196 105.097 88.8516 105.139 88.6136 105.139C88.3896 105.139 88.1166 105.076 87.7876 104.958C87.4586 104.826 87.0596 104.7 86.5766 104.554C86.0936 104.415 85.5266 104.282 84.8616 104.15C84.2036 104.032 83.4336 103.955 82.5306 103.955C81.4876 103.955 80.5776 104.08 79.8006 104.303C79.0236 104.519 78.3796 104.819 77.8756 105.174C77.3646 105.536 76.9866 105.954 76.7486 106.42C76.5106 106.887 76.3846 107.368 76.3846 107.848C76.3846 108.566 76.5316 109.151 76.8256 109.596C77.1196 110.035 77.5116 110.397 77.9876 110.648C78.4706 110.906 79.0236 111.094 79.6326 111.205C80.2486 111.31 80.8856 111.386 81.5226 111.435C82.1596 111.484 82.7896 111.518 83.4056 111.539C84.0216 111.56 84.5746 111.609 85.0576 111.693C85.5406 111.769 85.9256 111.902 86.2266 112.062C86.5206 112.236 86.6746 112.507 86.6746 112.863C86.6746 113.218 86.5066 113.503 86.1846 113.726C85.8626 113.942 85.4776 114.116 85.0366 114.235C84.6026 114.36 84.1546 114.451 83.6926 114.485C83.2376 114.527 82.8666 114.548 82.5726 114.548C82.1876 114.548 81.7536 114.506 81.2636 114.416C80.7736 114.332 80.3046 114.221 79.8566 114.081C79.4086 113.928 79.0096 113.775 78.6666 113.594C78.3166 113.42 78.0856 113.232 77.9736 113.051L77.8686 112.675L77.6166 112.556L76.2236 115.398L76.5806 115.586L76.9096 115.398C77.0916 115.398 77.3086 115.453 77.5676 115.572C77.8196 115.697 78.1626 115.816 78.5896 115.976C79.0236 116.122 79.5626 116.247 80.2136 116.352L80.2276 116.373Z" fill="#233F84"/>
<path d="M107.401 113.747C107.072 113.963 106.694 114.137 106.26 114.256C105.812 114.381 105.371 114.471 104.916 114.506C104.461 114.548 104.09 114.569 103.803 114.569C103.411 114.569 102.977 114.527 102.487 114.437C101.997 114.353 101.521 114.242 101.08 114.102C100.639 113.949 100.233 113.796 99.8901 113.615C99.5401 113.441 99.3091 113.253 99.1901 113.072L99.0921 112.695L98.8401 112.577L97.4541 115.419L97.8041 115.607L98.1401 115.419C98.3221 115.419 98.5391 115.474 98.7981 115.593C99.0501 115.718 99.3931 115.836 99.8201 115.997C100.254 116.143 100.786 116.268 101.444 116.373C102.095 116.47 102.907 116.512 103.859 116.512C104.552 116.512 105.301 116.47 106.106 116.373C106.911 116.268 107.653 116.066 108.353 115.767C109.046 115.467 109.62 115.063 110.089 114.548C110.551 114.04 110.789 113.371 110.789 112.556C110.789 111.86 110.635 111.289 110.348 110.85C110.047 110.411 109.662 110.063 109.179 109.805C108.703 109.548 108.15 109.36 107.534 109.241C106.918 109.123 106.295 109.039 105.644 108.99C105 108.942 104.377 108.907 103.761 108.879C103.145 108.844 102.592 108.788 102.109 108.691C101.633 108.593 101.234 108.454 100.94 108.266C100.653 108.071 100.499 107.792 100.499 107.423C100.499 107.159 100.604 106.929 100.814 106.755C101.031 106.588 101.29 106.427 101.619 106.316C101.941 106.212 102.298 106.128 102.69 106.079C103.096 106.024 103.474 105.996 103.845 105.996C104.335 105.996 104.825 106.024 105.322 106.121C105.805 106.212 106.26 106.316 106.687 106.455C107.107 106.595 107.478 106.762 107.793 106.943C108.094 107.124 108.311 107.312 108.458 107.486C108.556 107.625 108.633 107.806 108.668 108.029L108.92 108.12L110.663 105.195L110.362 105C110.264 105.097 110.089 105.139 109.851 105.139C109.634 105.139 109.361 105.076 109.032 104.958C108.703 104.826 108.297 104.7 107.814 104.554C107.331 104.415 106.771 104.282 106.106 104.15C105.441 104.032 104.671 103.955 103.775 103.955C102.725 103.955 101.815 104.08 101.038 104.303C100.254 104.519 99.6101 104.819 99.1131 105.174C98.6021 105.536 98.2311 105.954 97.9861 106.42C97.7411 106.887 97.6221 107.368 97.6221 107.848C97.6221 108.566 97.7691 109.151 98.0631 109.596C98.3571 110.035 98.7491 110.397 99.2251 110.648C99.7011 110.906 100.254 111.094 100.87 111.205C101.486 111.31 102.123 111.386 102.76 111.435C103.404 111.484 104.034 111.518 104.65 111.539C105.266 111.56 105.826 111.609 106.295 111.693C106.785 111.769 107.17 111.902 107.464 112.062C107.765 112.236 107.905 112.507 107.905 112.863C107.905 113.218 107.751 113.503 107.436 113.726L107.401 113.747Z" fill="#233F84"/>
<path d="M0 135.804V128.024H1.568V134.258H5.117V135.804H0Z" fill="#233F84"/>
<path d="M11.2144 133.199C11.2144 133.262 11.2074 133.331 11.2004 133.408H7.40638C7.48338 133.791 7.63737 134.083 7.86838 134.278C8.09938 134.473 8.39337 134.571 8.73637 134.571C8.99537 134.571 9.22638 134.522 9.42938 134.425C9.63238 134.327 9.84238 134.174 10.0594 133.958L10.9414 134.815C10.6824 135.163 10.3744 135.435 10.0034 135.63C9.63238 135.825 9.20537 135.922 8.70837 135.922C8.30238 135.922 7.92438 135.845 7.57438 135.699C7.22438 135.553 6.92338 135.337 6.67137 135.065C6.41937 134.794 6.21638 134.466 6.07638 134.09C5.93638 133.714 5.85938 133.296 5.85938 132.844V132.823C5.85938 132.398 5.92237 132.001 6.05537 131.625C6.18837 131.249 6.37037 130.915 6.60837 130.636C6.84637 130.357 7.12637 130.135 7.45537 129.967C7.78437 129.807 8.14838 129.724 8.54738 129.724C9.00238 129.724 9.39438 129.814 9.73038 129.988C10.0594 130.169 10.3394 130.406 10.5564 130.706C10.7734 131.005 10.9414 131.353 11.0464 131.736C11.1514 132.126 11.2074 132.53 11.2074 132.955V132.976C11.2074 133.06 11.2074 133.129 11.2074 133.185L11.2144 133.199ZM9.35238 131.437C9.15638 131.2 8.89738 131.089 8.56838 131.089C8.23938 131.089 7.98038 131.2 7.77737 131.43C7.57437 131.66 7.44838 131.966 7.38538 132.349H9.71638C9.66738 131.973 9.54838 131.667 9.35238 131.43V131.437Z" fill="#233F84"/>
<path d="M19.3616 135.804V134.954C19.1726 135.233 18.9416 135.463 18.6756 135.644C18.4096 135.825 18.0736 135.915 17.6606 135.915C17.3386 135.915 17.0306 135.846 16.7366 135.713C16.4356 135.581 16.1766 135.379 15.9456 135.121C15.7146 134.857 15.5326 134.536 15.3926 134.153C15.2526 133.77 15.1826 133.332 15.1826 132.837V132.816C15.1826 132.322 15.2526 131.883 15.3926 131.5C15.5326 131.117 15.7146 130.796 15.9386 130.532C16.1626 130.267 16.4286 130.072 16.7296 129.94C17.0306 129.808 17.3386 129.738 17.6676 129.738C18.0806 129.738 18.4236 129.828 18.6896 130.003C18.9556 130.177 19.1796 130.386 19.3686 130.622V127.697H20.9156V135.811H19.3686L19.3616 135.804ZM19.3826 132.809C19.3826 132.565 19.3476 132.336 19.2776 132.134C19.2076 131.932 19.1096 131.751 18.9906 131.611C18.8716 131.465 18.7316 131.354 18.5706 131.277C18.4096 131.2 18.2416 131.159 18.0596 131.159C17.8776 131.159 17.7026 131.2 17.5486 131.277C17.3876 131.354 17.2476 131.465 17.1286 131.611C17.0096 131.758 16.9116 131.932 16.8416 132.134C16.7716 132.336 16.7366 132.565 16.7366 132.816V132.837C16.7366 133.081 16.7716 133.311 16.8416 133.513C16.9116 133.715 17.0096 133.896 17.1286 134.035C17.2476 134.181 17.3946 134.293 17.5486 134.369C17.7096 134.446 17.8776 134.488 18.0596 134.488C18.2416 134.488 18.4166 134.446 18.5706 134.369C18.7316 134.293 18.8716 134.181 18.9906 134.035C19.1096 133.889 19.2076 133.715 19.2776 133.513C19.3476 133.311 19.3826 133.081 19.3826 132.837V132.816V132.809Z" fill="#233F84"/>
<path d="M27.3696 133.199C27.3696 133.262 27.3626 133.331 27.3556 133.408H23.5616C23.6386 133.791 23.7926 134.083 24.0236 134.278C24.2546 134.473 24.5486 134.571 24.8916 134.571C25.1506 134.571 25.3816 134.522 25.5846 134.425C25.7876 134.327 25.9976 134.174 26.2146 133.958L27.0966 134.815C26.8376 135.163 26.5296 135.435 26.1586 135.63C25.7876 135.825 25.3606 135.922 24.8636 135.922C24.4576 135.922 24.0796 135.845 23.7296 135.699C23.3796 135.553 23.0786 135.337 22.8266 135.065C22.5746 134.794 22.3716 134.466 22.2316 134.09C22.0916 133.714 22.0146 133.296 22.0146 132.844V132.823C22.0146 132.398 22.0776 132.001 22.2106 131.625C22.3436 131.249 22.5256 130.915 22.7636 130.636C23.0016 130.357 23.2816 130.135 23.6106 129.967C23.9396 129.807 24.3036 129.724 24.7026 129.724C25.1576 129.724 25.5496 129.814 25.8856 129.988C26.2146 130.169 26.4946 130.406 26.7116 130.706C26.9286 131.005 27.0966 131.353 27.2016 131.736C27.3066 132.126 27.3626 132.53 27.3626 132.955V132.976C27.3626 133.06 27.3626 133.129 27.3626 133.185L27.3696 133.199ZM25.5076 131.437C25.3116 131.2 25.0526 131.089 24.7236 131.089C24.3946 131.089 24.1356 131.2 23.9326 131.43C23.7296 131.66 23.6036 131.966 23.5406 132.349H25.8716C25.8226 131.973 25.7036 131.667 25.5076 131.43V131.437Z" fill="#233F84"/>
<path d="M31.5912 135.845H30.1842L28.0352 129.842H29.6732L30.8912 133.832L32.1232 129.842H33.7332L31.5842 135.845H31.5912Z" fill="#233F84"/>
<path d="M40.0473 134.042C39.9003 134.418 39.6903 134.746 39.4243 135.024C39.1583 135.303 38.8503 135.526 38.4863 135.693C38.1293 135.853 37.7303 135.937 37.3033 135.937C36.8763 135.937 36.4913 135.86 36.1343 135.7C35.7773 135.54 35.4623 135.324 35.2033 135.045C34.9443 134.766 34.7343 134.439 34.5873 134.07C34.4403 133.694 34.3633 133.297 34.3633 132.865V132.844C34.3633 132.413 34.4403 132.016 34.5873 131.639C34.7343 131.263 34.9443 130.936 35.2103 130.657C35.4763 130.379 35.7843 130.156 36.1483 129.989C36.5053 129.829 36.9043 129.745 37.3313 129.745C37.7583 129.745 38.1433 129.822 38.5003 129.982C38.8573 130.142 39.1723 130.358 39.4313 130.637C39.6903 130.915 39.9003 131.242 40.0473 131.612C40.1943 131.988 40.2713 132.385 40.2713 132.816V132.837C40.2713 133.269 40.1943 133.666 40.0473 134.042ZM38.7383 132.83C38.7383 132.608 38.7033 132.399 38.6333 132.204C38.5633 132.009 38.4653 131.834 38.3393 131.681C38.2133 131.528 38.0593 131.41 37.8843 131.319C37.7093 131.229 37.5133 131.187 37.3033 131.187C37.0793 131.187 36.8833 131.229 36.7083 131.312C36.5333 131.396 36.3863 131.514 36.2673 131.66C36.1483 131.807 36.0503 131.981 35.9873 132.176C35.9243 132.371 35.8893 132.58 35.8893 132.803V132.823C35.8893 133.046 35.9243 133.255 35.9943 133.45C36.0643 133.645 36.1623 133.819 36.2883 133.973C36.4143 134.126 36.5683 134.244 36.7433 134.335C36.9183 134.425 37.1143 134.467 37.3313 134.467C37.5483 134.467 37.7513 134.425 37.9263 134.342C38.1013 134.258 38.2483 134.14 38.3673 133.993C38.4863 133.847 38.5843 133.673 38.6473 133.478C38.7103 133.283 38.7453 133.074 38.7453 132.851V132.83H38.7383Z" fill="#233F84"/>
<path d="M41.4189 129.188V127.69H43.0499V129.188H41.4189ZM41.4609 135.804V129.849H43.0079V135.804H41.4609Z" fill="#233F84"/>
<path d="M47.663 131.5C47.145 131.5 46.739 131.667 46.445 132.008C46.151 132.35 46.004 132.879 46.004 133.596V135.797H44.457V129.842H46.004V131.04C46.158 130.629 46.375 130.309 46.648 130.065C46.921 129.822 47.285 129.71 47.747 129.731V131.5H47.663Z" fill="#233F84"/>
<path d="M55.6985 135.804V134.954C55.5095 135.233 55.2785 135.463 55.0125 135.644C54.7465 135.825 54.4105 135.915 53.9975 135.915C53.6755 135.915 53.3675 135.846 53.0735 135.713C52.7725 135.581 52.5135 135.379 52.2825 135.121C52.0515 134.857 51.8695 134.536 51.7295 134.153C51.5895 133.77 51.5195 133.332 51.5195 132.837V132.816C51.5195 132.322 51.5895 131.883 51.7295 131.5C51.8695 131.117 52.0515 130.796 52.2755 130.532C52.4995 130.267 52.7655 130.072 53.0665 129.94C53.3675 129.808 53.6755 129.738 54.0045 129.738C54.4175 129.738 54.7605 129.828 55.0265 130.003C55.2925 130.177 55.5165 130.386 55.7055 130.622V127.697H57.2525V135.811H55.7055L55.6985 135.804ZM55.7195 132.809C55.7195 132.565 55.6845 132.336 55.6145 132.134C55.5445 131.932 55.4465 131.751 55.3275 131.611C55.2085 131.465 55.0685 131.354 54.9075 131.277C54.7465 131.2 54.5785 131.159 54.3965 131.159C54.2145 131.159 54.0395 131.2 53.8855 131.277C53.7245 131.354 53.5845 131.465 53.4655 131.611C53.3465 131.758 53.2485 131.932 53.1785 132.134C53.1085 132.336 53.0735 132.565 53.0735 132.816V132.837C53.0735 133.081 53.1085 133.311 53.1785 133.513C53.2485 133.715 53.3465 133.896 53.4655 134.035C53.5845 134.181 53.7315 134.293 53.8855 134.369C54.0465 134.446 54.2145 134.488 54.3965 134.488C54.5785 134.488 54.7535 134.446 54.9075 134.369C55.0685 134.293 55.2085 134.181 55.3275 134.035C55.4465 133.889 55.5445 133.715 55.6145 133.513C55.6845 133.311 55.7195 133.081 55.7195 132.837V132.816V132.809Z" fill="#233F84"/>
<path d="M63.7144 133.199C63.7144 133.262 63.7074 133.331 63.7004 133.408H59.9064C59.9834 133.791 60.1374 134.083 60.3684 134.278C60.5994 134.473 60.8934 134.571 61.2364 134.571C61.4954 134.571 61.7264 134.522 61.9294 134.425C62.1324 134.327 62.3424 134.174 62.5594 133.958L63.4414 134.815C63.1824 135.163 62.8744 135.435 62.5034 135.63C62.1324 135.825 61.7054 135.922 61.2084 135.922C60.8024 135.922 60.4244 135.845 60.0744 135.699C59.7244 135.553 59.4234 135.337 59.1714 135.065C58.9194 134.794 58.7164 134.466 58.5764 134.09C58.4364 133.714 58.3594 133.296 58.3594 132.844V132.823C58.3594 132.398 58.4224 132.001 58.5554 131.625C58.6884 131.249 58.8704 130.915 59.1084 130.636C59.3464 130.357 59.6264 130.135 59.9554 129.967C60.2844 129.807 60.6484 129.724 61.0474 129.724C61.5024 129.724 61.8944 129.814 62.2304 129.988C62.5594 130.169 62.8394 130.406 63.0564 130.706C63.2734 131.005 63.4414 131.353 63.5464 131.736C63.6514 132.126 63.7074 132.53 63.7074 132.955V132.976C63.7074 133.06 63.7074 133.129 63.7074 133.185L63.7144 133.199ZM61.8454 131.437C61.6494 131.2 61.3904 131.089 61.0614 131.089C60.7324 131.089 60.4734 131.2 60.2704 131.43C60.0674 131.66 59.9414 131.966 59.8784 132.349H62.2094C62.1604 131.973 62.0414 131.667 61.8454 131.43V131.437Z" fill="#233F84"/>
<path d="M70.9798 135.845H69.5728L67.4238 129.842H69.0618L70.2798 133.832L71.5118 129.842H73.1218L70.9728 135.845H70.9798Z" fill="#233F84"/>
<path d="M79.436 134.042C79.289 134.418 79.079 134.746 78.813 135.024C78.547 135.303 78.239 135.526 77.875 135.693C77.518 135.853 77.119 135.937 76.692 135.937C76.265 135.937 75.88 135.86 75.523 135.7C75.166 135.54 74.851 135.324 74.592 135.045C74.333 134.766 74.123 134.439 73.976 134.07C73.829 133.694 73.752 133.297 73.752 132.865V132.844C73.752 132.413 73.829 132.016 73.976 131.639C74.123 131.263 74.333 130.936 74.599 130.657C74.865 130.379 75.173 130.156 75.537 129.989C75.894 129.829 76.293 129.745 76.72 129.745C77.147 129.745 77.532 129.822 77.889 129.982C78.246 130.142 78.561 130.358 78.82 130.637C79.079 130.915 79.289 131.242 79.436 131.612C79.583 131.988 79.66 132.385 79.66 132.816V132.837C79.66 133.269 79.583 133.666 79.436 134.042ZM78.134 132.83C78.134 132.608 78.099 132.399 78.029 132.204C77.959 132.009 77.861 131.834 77.735 131.681C77.609 131.528 77.455 131.41 77.28 131.319C77.105 131.229 76.909 131.187 76.699 131.187C76.475 131.187 76.279 131.229 76.104 131.312C75.929 131.396 75.782 131.514 75.663 131.66C75.544 131.807 75.446 131.981 75.383 132.176C75.32 132.371 75.285 132.58 75.285 132.803V132.823C75.285 133.046 75.32 133.255 75.39 133.45C75.46 133.645 75.558 133.819 75.684 133.973C75.81 134.126 75.964 134.244 76.139 134.335C76.314 134.425 76.51 134.467 76.727 134.467C76.944 134.467 77.147 134.425 77.322 134.342C77.497 134.258 77.644 134.14 77.763 133.993C77.882 133.847 77.98 133.673 78.043 133.478C78.106 133.283 78.141 133.074 78.141 132.851V132.83H78.134Z" fill="#233F84"/>
<path d="M84.1891 135.803V134.954C84.0981 135.079 84.0071 135.204 83.9021 135.316C83.7971 135.434 83.6781 135.532 83.5521 135.622C83.4261 135.713 83.2791 135.782 83.1251 135.838C82.9711 135.887 82.7961 135.915 82.5931 135.915C82.0051 135.915 81.5501 135.72 81.2281 135.323C80.9061 134.933 80.7451 134.39 80.7451 133.7V129.842H82.2921V133.157C82.2921 133.554 82.3761 133.86 82.5371 134.062C82.6981 134.264 82.9291 134.369 83.2301 134.369C83.5311 134.369 83.7621 134.264 83.9371 134.062C84.1121 133.86 84.1961 133.561 84.1961 133.157V129.842H85.7431V135.796H84.1961L84.1891 135.803Z" fill="#233F84"/>
<path d="M90.9583 134.85C90.8533 135.094 90.7063 135.289 90.5173 135.442C90.3283 135.595 90.1043 135.714 89.8523 135.79C89.6003 135.867 89.3273 135.909 89.0333 135.909C88.6483 135.909 88.2493 135.839 87.8503 135.693C87.4443 135.547 87.0593 135.324 86.6953 135.01L87.3533 133.896C87.6543 134.133 87.9483 134.314 88.2423 134.432C88.5363 134.551 88.8163 134.613 89.0683 134.613C89.2923 134.613 89.4533 134.571 89.5583 134.488C89.6633 134.404 89.7193 134.3 89.7193 134.168V134.147C89.7193 134.056 89.6913 133.98 89.6283 133.91C89.5653 133.84 89.4813 133.784 89.3763 133.736C89.2713 133.687 89.1523 133.638 89.0123 133.596C88.8793 133.555 88.7323 133.506 88.5853 133.45C88.3963 133.388 88.2073 133.318 88.0113 133.234C87.8153 133.151 87.6403 133.039 87.4863 132.9C87.3323 132.761 87.2063 132.594 87.1083 132.392C87.0103 132.19 86.9613 131.946 86.9613 131.66V131.639C86.9613 131.333 87.0173 131.068 87.1223 130.832C87.2273 130.595 87.3673 130.4 87.5493 130.24C87.7313 130.079 87.9413 129.954 88.1793 129.87C88.4173 129.787 88.6763 129.745 88.9563 129.745C89.2993 129.745 89.6563 129.808 90.0063 129.926C90.3633 130.052 90.6923 130.219 90.9863 130.435L90.3983 131.605C90.1253 131.437 89.8593 131.298 89.6073 131.201C89.3483 131.103 89.1243 131.047 88.9283 131.047C88.7323 131.047 88.5993 131.089 88.5013 131.166C88.4033 131.242 88.3613 131.34 88.3613 131.458V131.479C88.3613 131.563 88.3893 131.632 88.4523 131.695C88.5153 131.758 88.5923 131.821 88.6973 131.876C88.8023 131.932 88.9143 131.988 89.0473 132.036C89.1803 132.085 89.3203 132.141 89.4673 132.19C89.6563 132.259 89.8523 132.336 90.0483 132.426C90.2443 132.517 90.4193 132.635 90.5803 132.768C90.7343 132.9 90.8673 133.067 90.9653 133.255C91.0703 133.45 91.1193 133.68 91.1193 133.959V133.98C91.1193 134.314 91.0633 134.599 90.9583 134.843V134.85Z" fill="#233F84"/>
<path d="M100.793 134.153C100.653 134.536 100.471 134.856 100.247 135.121C100.023 135.386 99.7565 135.581 99.4555 135.713C99.1545 135.845 98.8465 135.915 98.5175 135.915C98.1045 135.915 97.7615 135.824 97.4955 135.65C97.2295 135.476 97.0055 135.267 96.8165 135.03V137.579H95.2695V129.842H96.8165V130.692C97.0055 130.413 97.2365 130.183 97.5025 130.002C97.7685 129.821 98.1045 129.73 98.5175 129.73C98.8395 129.73 99.1475 129.8 99.4415 129.932C99.7425 130.065 100.002 130.267 100.233 130.524C100.464 130.789 100.646 131.109 100.786 131.492C100.926 131.876 100.996 132.314 100.996 132.809V132.83C100.996 133.324 100.926 133.763 100.786 134.146L100.793 134.153ZM99.4555 132.809C99.4555 132.565 99.4205 132.335 99.3505 132.133C99.2805 131.931 99.1825 131.75 99.0635 131.611C98.9445 131.472 98.7975 131.353 98.6435 131.277C98.4825 131.2 98.3145 131.158 98.1325 131.158C97.9505 131.158 97.7755 131.2 97.6215 131.277C97.4605 131.353 97.3205 131.465 97.2015 131.611C97.0825 131.757 96.9845 131.931 96.9145 132.133C96.8445 132.335 96.8095 132.565 96.8095 132.809V132.83C96.8095 133.073 96.8445 133.303 96.9145 133.505C96.9845 133.707 97.0825 133.888 97.2015 134.028C97.3205 134.167 97.4605 134.285 97.6215 134.362C97.7825 134.438 97.9505 134.48 98.1325 134.48C98.3145 134.48 98.4895 134.438 98.6435 134.362C98.8045 134.285 98.9445 134.174 99.0635 134.028C99.1825 133.881 99.2805 133.707 99.3505 133.505C99.4205 133.303 99.4555 133.073 99.4555 132.823V132.802V132.809Z" fill="#233F84"/>
<path d="M105.35 131.5C104.832 131.5 104.426 131.667 104.132 132.008C103.838 132.35 103.691 132.879 103.691 133.596V135.797H102.144V129.842H103.691V131.04C103.845 130.629 104.062 130.309 104.335 130.065C104.608 129.822 104.972 129.71 105.434 129.731V131.5H105.35Z" fill="#233F84"/>
<path d="M111.811 134.042C111.664 134.418 111.454 134.746 111.188 135.024C110.922 135.303 110.614 135.526 110.25 135.693C109.893 135.853 109.494 135.937 109.067 135.937C108.64 135.937 108.255 135.86 107.898 135.7C107.541 135.54 107.226 135.324 106.967 135.045C106.708 134.766 106.498 134.439 106.351 134.07C106.204 133.694 106.127 133.297 106.127 132.865V132.844C106.127 132.413 106.204 132.016 106.351 131.639C106.498 131.263 106.708 130.936 106.974 130.657C107.24 130.379 107.548 130.156 107.912 129.989C108.269 129.829 108.668 129.745 109.095 129.745C109.522 129.745 109.907 129.822 110.264 129.982C110.621 130.142 110.936 130.358 111.195 130.637C111.454 130.915 111.664 131.242 111.811 131.612C111.958 131.988 112.035 132.385 112.035 132.816V132.837C112.035 133.269 111.958 133.666 111.811 134.042ZM110.509 132.83C110.509 132.608 110.474 132.399 110.404 132.204C110.334 132.009 110.236 131.834 110.11 131.681C109.984 131.528 109.83 131.41 109.655 131.319C109.48 131.229 109.284 131.187 109.074 131.187C108.85 131.187 108.654 131.229 108.479 131.312C108.304 131.396 108.157 131.514 108.038 131.66C107.919 131.807 107.821 131.981 107.758 132.176C107.695 132.371 107.66 132.58 107.66 132.803V132.823C107.66 133.046 107.695 133.255 107.765 133.45C107.835 133.645 107.933 133.819 108.059 133.973C108.185 134.126 108.339 134.244 108.514 134.335C108.689 134.425 108.885 134.467 109.102 134.467C109.319 134.467 109.522 134.425 109.697 134.342C109.872 134.258 110.019 134.14 110.138 133.993C110.257 133.847 110.355 133.673 110.418 133.478C110.481 133.283 110.516 133.074 110.516 132.851V132.83H110.509Z" fill="#233F84"/>
<path d="M115.675 135.804C115.479 135.867 115.248 135.902 114.996 135.902C114.758 135.902 114.541 135.874 114.352 135.818C114.156 135.762 113.995 135.665 113.855 135.525C113.715 135.386 113.61 135.198 113.526 134.975C113.449 134.752 113.407 134.46 113.407 134.112V131.291H112.756V129.849H113.407V128.324H114.954V129.849H116.235V131.291H114.954V133.833C114.954 134.216 115.122 134.411 115.451 134.411C115.724 134.411 115.976 134.342 116.214 134.202V135.56C116.053 135.665 115.871 135.748 115.675 135.811V135.804Z" fill="#233F84"/>
<path d="M122.458 133.199C122.458 133.262 122.451 133.331 122.444 133.408H118.65C118.727 133.791 118.881 134.084 119.112 134.279C119.343 134.474 119.637 134.571 119.98 134.571C120.239 134.571 120.47 134.522 120.673 134.425C120.876 134.327 121.086 134.174 121.303 133.958L122.185 134.815C121.926 135.163 121.618 135.435 121.247 135.63C120.876 135.825 120.449 135.922 119.952 135.922C119.546 135.922 119.168 135.846 118.818 135.699C118.468 135.553 118.167 135.337 117.915 135.066C117.663 134.794 117.46 134.467 117.32 134.091C117.18 133.715 117.103 133.297 117.103 132.844V132.823C117.103 132.398 117.166 132.001 117.299 131.625C117.432 131.249 117.614 130.915 117.852 130.636C118.09 130.358 118.37 130.135 118.699 129.968C119.028 129.807 119.392 129.724 119.791 129.724C120.246 129.724 120.638 129.814 120.974 129.989C121.303 130.17 121.583 130.406 121.8 130.706C122.017 131.005 122.185 131.354 122.29 131.737C122.395 132.127 122.451 132.531 122.451 132.955V132.976C122.451 133.06 122.451 133.13 122.451 133.185L122.458 133.199ZM120.589 131.437C120.393 131.2 120.134 131.089 119.805 131.089C119.476 131.089 119.217 131.2 119.014 131.43C118.811 131.66 118.685 131.966 118.622 132.349H120.953C120.904 131.973 120.785 131.667 120.589 131.43V131.437ZM119.182 129.188L120.33 127.224L121.66 127.857L120.358 129.188H119.175H119.182Z" fill="#233F84"/>
<path d="M128.905 135.894C128.779 136.291 128.59 136.612 128.338 136.869C128.086 137.12 127.764 137.308 127.386 137.427C127.008 137.545 126.56 137.608 126.056 137.608C125.608 137.608 125.181 137.552 124.775 137.448C124.369 137.343 123.991 137.19 123.648 136.988L124.18 135.72C124.467 135.888 124.754 136.027 125.041 136.117C125.328 136.215 125.657 136.264 126.021 136.264C126.553 136.264 126.945 136.124 127.197 135.853C127.449 135.581 127.575 135.177 127.575 134.641V134.355C127.344 134.662 127.092 134.899 126.819 135.066C126.546 135.233 126.203 135.323 125.79 135.323C125.468 135.323 125.167 135.261 124.873 135.142C124.579 135.024 124.327 134.843 124.103 134.606C123.879 134.369 123.704 134.077 123.571 133.735C123.438 133.394 123.375 132.997 123.375 132.552V132.531C123.375 132.085 123.445 131.695 123.578 131.347C123.711 131.005 123.893 130.713 124.117 130.476C124.341 130.239 124.6 130.058 124.887 129.94C125.181 129.815 125.482 129.759 125.79 129.759C126.21 129.759 126.553 129.842 126.826 130.016C127.099 130.184 127.337 130.4 127.547 130.65V129.87H129.094V134.481C129.094 135.045 129.031 135.525 128.905 135.922V135.894ZM127.568 132.51C127.568 132.308 127.533 132.127 127.463 131.953C127.393 131.785 127.302 131.639 127.183 131.514C127.064 131.388 126.924 131.298 126.763 131.228C126.602 131.159 126.427 131.131 126.231 131.131C126.035 131.131 125.867 131.166 125.706 131.228C125.545 131.298 125.405 131.388 125.286 131.514C125.167 131.639 125.076 131.785 125.006 131.953C124.936 132.12 124.901 132.308 124.901 132.51V132.531C124.901 132.949 125.027 133.276 125.279 133.534C125.531 133.784 125.846 133.91 126.224 133.91C126.413 133.91 126.588 133.875 126.756 133.812C126.917 133.742 127.057 133.652 127.176 133.527C127.295 133.401 127.386 133.255 127.456 133.088C127.526 132.921 127.561 132.733 127.561 132.531V132.51H127.568Z" fill="#233F84"/>
<path d="M135.562 133.199C135.562 133.262 135.555 133.331 135.548 133.408H131.754C131.831 133.791 131.985 134.083 132.216 134.278C132.447 134.473 132.741 134.571 133.084 134.571C133.343 134.571 133.574 134.522 133.777 134.425C133.98 134.327 134.19 134.174 134.407 133.958L135.289 134.815C135.03 135.163 134.722 135.435 134.351 135.63C133.98 135.825 133.553 135.922 133.056 135.922C132.65 135.922 132.272 135.845 131.922 135.699C131.572 135.553 131.271 135.337 131.019 135.065C130.767 134.794 130.564 134.466 130.424 134.09C130.284 133.714 130.207 133.296 130.207 132.844V132.823C130.207 132.398 130.27 132.001 130.403 131.625C130.536 131.249 130.718 130.915 130.956 130.636C131.194 130.357 131.474 130.135 131.803 129.967C132.132 129.807 132.496 129.724 132.895 129.724C133.35 129.724 133.742 129.814 134.078 129.988C134.407 130.169 134.687 130.406 134.904 130.706C135.121 131.005 135.289 131.353 135.394 131.736C135.499 132.126 135.555 132.53 135.555 132.955V132.976C135.555 133.06 135.555 133.129 135.555 133.185L135.562 133.199ZM133.693 131.437C133.497 131.2 133.238 131.089 132.909 131.089C132.58 131.089 132.321 131.2 132.118 131.43C131.915 131.66 131.789 131.966 131.726 132.349H134.057C134.008 131.973 133.889 131.667 133.693 131.43V131.437Z" fill="#233F84"/>
<path d="M139.916 131.5C139.398 131.5 138.992 131.667 138.698 132.008C138.404 132.35 138.257 132.879 138.257 133.596V135.797H136.71V129.842H138.257V131.04C138.411 130.629 138.628 130.309 138.901 130.065C139.174 129.822 139.538 129.71 140 129.731V131.5H139.916Z" fill="#233F84"/>
</g>
<defs>
<clipPath id="clip0_412_4417">
<rect width="140" height="137.2" fill="white" transform="translate(0 0.400391)"/>
</clipPath>
</defs>
</svg>
