<svg width="148" height="143" viewBox="0 0 148 143" fill="none" xmlns="http://www.w3.org/2000/svg">
<circle cx="68.5" cy="68.5" r="68.5" transform="matrix(-1 0 0 1 137.356 0)" fill="#F1F4FB"/>
<path d="M58.3568 125C52.7764 122.463 51.5748 120.993 51.3568 118L108.357 45.5L142.857 55.5C147.392 57.3992 148.655 59.3364 146.857 65.5L126.857 135.5C124.973 141.58 122.782 143.44 115.357 142L58.3568 125Z" fill="#CBD1D7"/>
<path d="M99.3564 115.5C105.125 114.525 106.956 112.303 108.356 106L51.3564 114.5V118L99.3564 115.5Z" fill="#797F86"/>
<path d="M108.356 31.5V106.5C107.445 111.449 105.851 113.407 99.8564 114.5H38.3564C31.9073 114.365 30.5297 112.286 30.3564 106.5V31.5C30.2869 24.8438 32.4537 23.5566 38.3564 23.5H99.8564C106.334 23.6842 108.127 25.3717 108.356 31.5Z" fill="white"/>
<path d="M44.8564 101.5L40.8564 98L44.1434 94.3843L48.161 97.865L44.8564 101.5Z" fill="#797F86"/>
<path d="M44.8564 101.5L40.8564 98L44.1434 94.3843L48.161 97.865L44.8564 101.5Z" fill="#E3E7ED"/>
<path d="M45.8564 92.5L49.8564 96L48.161 97.865L44.1434 94.3843L45.8564 92.5Z" fill="#797F86"/>
<path d="M45.8564 92.5L49.8564 96L48.161 97.865L44.1434 94.3843L45.8564 92.5Z" fill="#797F86"/>
<path d="M46.3569 105.5L26.3569 129C22.8564 132.5 13.3564 125 16.8569 121L36.3569 97.5C37.7141 96.237 38.48 96.0702 39.8569 97L46.3569 102.5C47.2698 103.455 47.4091 104.083 46.3569 105.5Z" fill="#9CA3A9"/>
<path d="M21.8567 118.5L37.3567 101C38.1049 100.134 38.4256 100.056 38.8567 100.5C39.9226 101.359 39.0043 101.666 38.3567 102.5L23.3567 119.5C22.6891 120.373 22.3689 120.419 21.8567 120C21.2869 119.549 21.2783 119.214 21.8567 118.5Z" fill="white" stroke="white"/>
<path d="M35.3564 69C35.3564 87.2254 50.1311 102 68.3564 102C86.5818 102 101.356 87.2254 101.356 69C101.356 50.7746 86.5818 36 68.3564 36C50.1311 36 35.3564 50.7746 35.3564 69ZM94.7564 69C94.7564 83.5803 82.9368 95.4 68.3564 95.4C53.7761 95.4 41.9564 83.5803 41.9564 69C41.9564 54.4197 53.7761 42.6 68.3564 42.6C82.9368 42.6 94.7564 54.4197 94.7564 69Z" fill="#B4BAC0"/>
<path d="M58.3566 39.5C73.3559 36.3565 80.82 37.8714 91.8566 48C94.5081 50.4332 93.3569 52 90.8566 49C79.3327 38.6988 72.2801 37.3813 58.8566 41C55.426 41.9248 54.8564 40.5 58.3566 39.5Z" fill="white"/>
<path d="M97.1067 56C98.1141 58.2989 97.3561 59.2618 96.1067 56.5L95.2894 54.8653C93.4748 51.6165 94.668 51.4684 96.2528 54.2921L97.1067 56Z" fill="white"/>
<path d="M76.6435 61.9999C76.5996 63.7155 76.6441 71 76.6435 72.9999C76.448 74.5082 75.3707 75.4782 73.1435 75.9999V85.9999C72.9229 91.3384 63.1435 90.9999 63.1435 85.9999V75.9999C60.766 75.4572 59.6321 74.6787 59.6435 72.9999C59.655 71.3212 59.5396 63.8787 59.6435 61.9999C59.6435 59.5 61.1436 59 62.6435 58.9999C64.4211 59.0918 71.6682 58.7317 73.6435 58.9999C75.6189 59.2682 76.6432 60 76.6435 61.9999Z" fill="#90D0CD"/>
<path d="M89.6436 58C88.3249 54.9921 87.4038 53.7851 85.6436 52C83.1176 55.2994 85.1514 59.0719 89.6436 58Z" fill="#C7E8E6"/>
<path d="M46.6436 58C47.9622 54.9921 48.8833 53.7851 50.6436 52C53.1696 55.2994 51.1357 59.0719 46.6436 58Z" fill="#C7E8E6"/>
<path d="M80.6435 63V72.5C80.9114 74.3109 81.6528 74.9775 83.6435 75.5V84.5C83.7045 85.6208 84.105 86.1837 85.1435 87C92.6436 78.5 94.1436 70.5 90.6435 60H83.6435C81.4647 60.138 80.7884 60.7499 80.6435 63Z" fill="#C7E8E6"/>
<path d="M55.6436 63V72.5C55.3757 74.3109 54.6343 74.9775 52.6436 75.5V84.5C52.5826 85.6208 52.1821 86.1837 51.1436 87C43.6435 78.5 42.1436 70.5 45.6436 60H52.6436C54.8225 60.138 55.4987 60.7499 55.6436 63Z" fill="#C7E8E6"/>
<circle cx="4.5" cy="4.5" r="4.5" transform="matrix(-1 0 0 1 72.6436 49)" fill="#90D0CD"/>
</svg>
