<svg width="50" height="50" viewBox="0 0 50 50" fill="none" xmlns="http://www.w3.org/2000/svg">
<path d="M0 25C0 11.1929 11.1929 0 25 0C38.8071 0 50 11.1929 50 25C50 38.8071 38.8071 50 25 50C11.1929 50 0 38.8071 0 25Z" fill="#F0AD4E"/>
<path fill-rule="evenodd" clip-rule="evenodd" d="M17.7077 14.8712C18.9381 14.4475 20.2669 14.4343 21.5049 14.8333C22.7431 15.2324 23.8291 16.0241 24.6061 17.0978C24.6999 17.2274 24.8499 17.3043 25.0098 17.3047C25.1697 17.3052 25.3202 17.2291 25.4146 17.1001C25.9254 16.4025 26.5702 15.8216 27.308 15.3931C28.0459 14.9646 28.8612 14.6975 29.7029 14.6079C30.5447 14.5183 31.3955 14.6081 32.2024 14.8718C33.0093 15.1356 33.7554 15.5678 34.3937 16.1422C35.0321 16.7167 35.5489 17.4211 35.9112 18.2117C36.2736 19.0024 36.4733 19.8619 36.4975 20.7364C36.5217 21.6109 36.3699 22.4808 36.0519 23.2915C35.7435 24.0775 35.2856 24.791 34.706 25.3906C34.6862 25.4055 34.6673 25.422 34.6494 25.4402L25.0112 35.2433L21.5084 31.6809C21.3148 31.484 20.9983 31.4813 20.8014 31.6749C20.6045 31.8685 20.6018 32.1851 20.7954 32.382L24.6547 36.3071C24.7487 36.4027 24.8771 36.4565 25.0112 36.4565C25.1453 36.4565 25.2738 36.4027 25.3678 36.307L35.305 26.1997C35.3246 26.1851 35.3433 26.1689 35.361 26.151C36.0637 25.4422 36.6155 24.593 36.9828 23.6567C37.3501 22.7205 37.525 21.7169 37.4971 20.7087C37.4692 19.7005 37.2389 18.7086 36.8203 17.7952C36.4017 16.8816 35.8036 16.0657 35.0626 15.3989C34.3216 14.7321 33.4538 14.2288 32.513 13.9213C31.5723 13.6138 30.5795 13.509 29.5971 13.6135C28.6147 13.7181 27.6644 14.0297 26.8058 14.5283C26.1332 14.919 25.5283 15.4177 25.0135 16.0039C24.1563 15.0169 23.0513 14.281 21.8116 13.8815C20.3677 13.4161 18.817 13.4316 17.3822 13.9257C15.9475 14.4197 14.7042 15.3661 13.8283 16.6269C12.9525 17.8875 12.4883 19.3987 12.5002 20.9444C12.5024 21.2205 12.7279 21.4427 13.0041 21.4405C13.2802 21.4384 13.5023 21.2128 13.5002 20.9367C13.4898 19.5956 13.8928 18.2868 14.6496 17.1974C15.4062 16.1082 16.4772 15.2949 17.7077 14.8712ZM21.4889 20.7481C21.422 20.542 21.23 20.4025 21.0134 20.4025C20.7967 20.4025 20.6047 20.542 20.5378 20.7481L18.1964 27.9619L16.1022 24.736C16.01 24.5939 15.8522 24.5082 15.6828 24.5082H13.0176C12.7414 24.5082 12.5176 24.7321 12.5176 25.0082C12.5176 25.2843 12.7414 25.5082 13.0176 25.5082H15.4113L17.9287 29.3862C18.0337 29.5479 18.2223 29.6348 18.4134 29.6096C18.6045 29.5845 18.7642 29.4516 18.8237 29.2683L21.0134 22.5221L21.8704 25.1626C21.9373 25.3687 22.1293 25.5082 22.346 25.5082H26.3439C26.62 25.5082 26.8439 25.2843 26.8439 25.0082C26.8439 24.7321 26.62 24.5082 26.3439 24.5082H22.7094L21.4889 20.7481Z" fill="white"/>
</svg>
