<svg width="32" height="32" viewBox="0 0 32 32" fill="none" xmlns="http://www.w3.org/2000/svg">
<path d="M0.5 16C0.5 7.43959 7.43959 0.5 16 0.5C24.5604 0.5 31.5 7.43959 31.5 16C31.5 24.5604 24.5604 31.5 16 31.5C7.43959 31.5 0.5 24.5604 0.5 16Z" stroke="white"/>
<g clip-path="url(#clip0_829_1953)">
<path d="M21.2496 10.7584C20.9246 10.4334 20.3996 10.4334 20.0746 10.7584L15.9996 14.8251L11.9246 10.7501C11.5996 10.4251 11.0746 10.4251 10.7496 10.7501C10.4246 11.0751 10.4246 11.6001 10.7496 11.9251L14.8246 16.0001L10.7496 20.0751C10.4246 20.4001 10.4246 20.9251 10.7496 21.2501C11.0746 21.5751 11.5996 21.5751 11.9246 21.2501L15.9996 17.1751L20.0746 21.2501C20.3996 21.5751 20.9246 21.5751 21.2496 21.2501C21.5746 20.9251 21.5746 20.4001 21.2496 20.0751L17.1746 16.0001L21.2496 11.9251C21.5663 11.6084 21.5663 11.0751 21.2496 10.7584Z" fill="white"/>
</g>
<defs>
<clipPath id="clip0_829_1953">
<rect width="20" height="20" fill="white" transform="translate(6 6)"/>
</clipPath>
</defs>
</svg>
